<?xml version="1.0" encoding="UTF-8" standalone="no"?>
<!-- Created with Inkscape (http://www.inkscape.org/) -->

<svg
   width="47.625mm"
   height="47.625mm"
   viewBox="0 0 47.625001 47.625"
   version="1.1"
   id="svg5"
   inkscape:version="1.2.2 (b0a8486541, 2022-12-01)"
   sodipodi:docname="favicon.svg"
   xmlns:inkscape="http://www.inkscape.org/namespaces/inkscape"
   xmlns:sodipodi="http://sodipodi.sourceforge.net/DTD/sodipodi-0.dtd"
   xmlns="http://www.w3.org/2000/svg"
   xmlns:svg="http://www.w3.org/2000/svg">
  <sodipodi:namedview
     id="namedview7"
     pagecolor="#ffffff"
     bordercolor="#666666"
     borderopacity="1.0"
     inkscape:showpageshadow="2"
     inkscape:pageopacity="0.0"
     inkscape:pagecheckerboard="0"
     inkscape:deskcolor="#d1d1d1"
     inkscape:document-units="mm"
     showgrid="false"
     inkscape:zoom="1.3266287"
     inkscape:cx="548.75941"
     inkscape:cy="41.081576"
     inkscape:window-width="2560"
     inkscape:window-height="1376"
     inkscape:window-x="0"
     inkscape:window-y="27"
     inkscape:window-maximized="1"
     inkscape:current-layer="layer1">
    <inkscape:grid
       type="xygrid"
       id="grid139"
       originx="-78.164863"
       originy="-70.619703" />
  </sodipodi:namedview>
  <defs
     id="defs2" />
  <g
     inkscape:label="Katman 1"
     inkscape:groupmode="layer"
     id="layer1"
     transform="translate(-78.16486,-70.619704)">
    <text
       xml:space="preserve"
       style="font-style:normal;font-weight:normal;font-size:40px;line-height:1.25;font-family:sans-serif;fill:black;fill-opacity:1;stroke:none"
       x="169.88669"
       y="776.73926"
       id="text447"
       transform="scale(0.26458333)"><tspan
         sodipodi:role="line"
         id="tspan445"
         x="169.88669"
         y="776.73926" /></text>
    <text
       xml:space="preserve"
       style="font-style:normal;font-weight:normal;font-size:40px;line-height:1.25;font-family:sans-serif;fill:black;fill-opacity:1;stroke:none"
       x="878.33978"
       y="733.3714"
       id="text499"
       transform="scale(0.26458333)"><tspan
         sodipodi:role="line"
         id="tspan497"
         x="878.33978"
         y="733.3714" /></text>
    <g
       id="g313"
       transform="matrix(1.2569839,0,0,1.2569839,-20.087118,-18.14813)"
       style="stroke-width:0.795557">
      <path
         d="m 172.56379,330.76416 q 0,1.41731 -0.60742,2.55115 -0.60742,1.13384 -1.57928,1.94373 -0.93137,0.76939 -2.1462,1.21483 -1.21484,0.44544 -2.42967,0.44544 -1.17434,0 -2.59164,-0.48593 -1.4173,-0.48594 -2.63214,-1.66027 -0.20247,-0.20247 -0.20247,-0.52643 0,-0.44544 0.16198,-1.05285 0.16198,-0.60742 0.44544,-0.60742 0.12148,0 0.48593,0.44544 0.40494,0.40494 1.09335,0.93137 0.6884,0.52643 1.66027,0.97186 1.01236,0.40495 2.34867,0.40495 0.60742,0 1.29583,-0.16198 0.72889,-0.20247 1.33631,-0.60741 0.60742,-0.44544 0.97187,-1.09335 0.40494,-0.68841 0.40494,-1.61978 0,-0.89088 -0.32395,-1.57928 -0.28347,-0.68841 -0.85039,-1.25533 -0.56692,-0.56692 -1.33631,-1.09335 -0.7694,-0.52642 -1.70077,-1.09335 -1.17433,-0.72889 -2.02472,-1.3768 -0.85038,-0.68841 -1.4173,-1.41731 -0.56692,-0.7289 -0.85038,-1.57928 -0.24297,-0.89088 -0.24297,-1.98423 0,-0.7289 0.28346,-1.61977 0.28346,-0.93137 0.93137,-1.74126 0.68841,-0.85038 1.82225,-1.37681 1.13384,-0.56692 2.79411,-0.56692 1.29582,0 2.63214,0.52642 1.33631,0.48594 2.34867,1.57929 0.12149,0.12148 0.12149,0.36445 0,0.6884 -0.24297,1.17433 -0.24296,0.48594 -0.52643,0.48594 -0.081,0 -0.44543,-0.40495 -0.32396,-0.40494 -0.97187,-0.89087 -0.60742,-0.52643 -1.53879,-0.93138 -0.93137,-0.40494 -2.1462,-0.40494 -0.44544,0 -0.97187,0.16198 -0.48593,0.16198 -0.93137,0.56692 -0.44544,0.36445 -0.76939,1.01236 -0.28346,0.60742 -0.28346,1.49829 0,0.80989 0.24297,1.4578 0.24296,0.60742 0.80988,1.21483 0.60742,0.60742 1.4983,1.29582 0.93137,0.64791 2.26768,1.4578 2.02472,1.21483 2.9156,2.42967 0.89088,1.17433 0.89088,2.99658 z"
         style="font-size:40.4944px;line-height:1.25;font-family:'Briem Handwriting';-inkscape-font-specification:'Briem Handwriting';fill:#666;stroke-width:0.120808"
         id="path307"
         transform="matrix(1.7423527,0,0,1.7423527,-193.11573,-478.52425)" />
      <path
         d="m 172.56379,330.76416 q 0,1.41731 -0.60742,2.55115 -0.60742,1.13384 -1.57928,1.94373 -0.93137,0.76939 -2.1462,1.21483 -1.21484,0.44544 -2.42967,0.44544 -1.17434,0 -2.59164,-0.48593 -1.4173,-0.48594 -2.63214,-1.66027 -0.20247,-0.20247 -0.20247,-0.52643 0,-0.44544 0.16198,-1.05285 0.16198,-0.60742 0.44544,-0.60742 0.12148,0 0.48593,0.44544 0.40494,0.40494 1.09335,0.93137 0.6884,0.52643 1.66027,0.97186 1.01236,0.40495 2.34867,0.40495 0.60742,0 1.29583,-0.16198 0.72889,-0.20247 1.33631,-0.60741 0.60742,-0.44544 0.97187,-1.09335 0.40494,-0.68841 0.40494,-1.61978 0,-0.89088 -0.32395,-1.57928 -0.28347,-0.68841 -0.85039,-1.25533 -0.56692,-0.56692 -1.33631,-1.09335 -0.7694,-0.52642 -1.70077,-1.09335 -1.17433,-0.72889 -2.02472,-1.3768 -0.85038,-0.68841 -1.4173,-1.41731 -0.56692,-0.7289 -0.85038,-1.57928 -0.24297,-0.89088 -0.24297,-1.98423 0,-0.7289 0.28346,-1.61977 0.28346,-0.93137 0.93137,-1.74126 0.68841,-0.85038 1.82225,-1.37681 1.13384,-0.56692 2.79411,-0.56692 1.29582,0 2.63214,0.52642 1.33631,0.48594 2.34867,1.57929 0.12149,0.12148 0.12149,0.36445 0,0.6884 -0.24297,1.17433 -0.24296,0.48594 -0.52643,0.48594 -0.081,0 -0.44543,-0.40495 -0.32396,-0.40494 -0.97187,-0.89087 -0.60742,-0.52643 -1.53879,-0.93138 -0.93137,-0.40494 -2.1462,-0.40494 -0.44544,0 -0.97187,0.16198 -0.48593,0.16198 -0.93137,0.56692 -0.44544,0.36445 -0.76939,1.01236 -0.28346,0.60742 -0.28346,1.49829 0,0.80989 0.24297,1.4578 0.24296,0.60742 0.80988,1.21483 0.60742,0.60742 1.4983,1.29582 0.93137,0.64791 2.26768,1.4578 2.02472,1.21483 2.9156,2.42967 0.89088,1.17433 0.89088,2.99658 z"
         style="font-size:40.4944px;line-height:1.25;font-family:'Briem Handwriting';-inkscape-font-specification:'Briem Handwriting';fill:#666;stroke-width:0.120808"
         id="path309"
         transform="matrix(0,-1.7423527,1.7423527,0,-470.97909,379.78862)" />
    </g>
  </g>
</svg>
