<?xml version="1.0" standalone="no"?>
<svg
  xmlns="http://www.w3.org/2000/svg"
  xmlns:_="http://sevgi.roktas.dev"
  xmlns:inkscape="http://www.inkscape.org/namespaces/inkscape"
  xmlns:sodipodi="http://sodipodi.sourceforge.net/DTD/sodipodi-0.dtd"
  shape-rendering="crispEdges"
  width="210.0mm"
  height="297.0mm"
  viewBox="0 0 210 297"
>
  <style type="text/css">
    <![CDATA[
      .labels {
        fill: black;
        font: 3pt monospace;
      }
      .majors {
        stroke: black;
        stroke-width: 0.2;
      }
      .halves {
        stroke: black;
        stroke-width: 0.1;
      }
      .minors {
        stroke: black;
        stroke-width: 0.1;
      }
      .frame {
        stroke: black;
        stroke-width: 0.05;
        fill: none;
      }
    ]]>
  </style>
  <rect id="frame" width="20" height="150" class="frame"/>
  <g id="minors" inkscape:groupmode="layer">
    <line x1="0" y1="0" x2="2" y2="0" class="minors"/>
    <line x1="20" y1="0" x2="18" y2="0" class="minors"/>
    <line x1="0" y1="1" x2="2" y2="1" class="minors"/>
    <line x1="20" y1="1" x2="18" y2="1" class="minors"/>
    <line x1="0" y1="2" x2="2" y2="2" class="minors"/>
    <line x1="20" y1="2" x2="18" y2="2" class="minors"/>
    <line x1="0" y1="3" x2="2" y2="3" class="minors"/>
    <line x1="20" y1="3" x2="18" y2="3" class="minors"/>
    <line x1="0" y1="4" x2="2" y2="4" class="minors"/>
    <line x1="20" y1="4" x2="18" y2="4" class="minors"/>
    <line x1="0" y1="5" x2="2" y2="5" class="minors"/>
    <line x1="20" y1="5" x2="18" y2="5" class="minors"/>
    <line x1="0" y1="6" x2="2" y2="6" class="minors"/>
    <line x1="20" y1="6" x2="18" y2="6" class="minors"/>
    <line x1="0" y1="7" x2="2" y2="7" class="minors"/>
    <line x1="20" y1="7" x2="18" y2="7" class="minors"/>
    <line x1="0" y1="8" x2="2" y2="8" class="minors"/>
    <line x1="20" y1="8" x2="18" y2="8" class="minors"/>
    <line x1="0" y1="9" x2="2" y2="9" class="minors"/>
    <line x1="20" y1="9" x2="18" y2="9" class="minors"/>
    <line x1="0" y1="10" x2="2" y2="10" class="minors"/>
    <line x1="20" y1="10" x2="18" y2="10" class="minors"/>
    <line x1="0" y1="11" x2="2" y2="11" class="minors"/>
    <line x1="20" y1="11" x2="18" y2="11" class="minors"/>
    <line x1="0" y1="12" x2="2" y2="12" class="minors"/>
    <line x1="20" y1="12" x2="18" y2="12" class="minors"/>
    <line x1="0" y1="13" x2="2" y2="13" class="minors"/>
    <line x1="20" y1="13" x2="18" y2="13" class="minors"/>
    <line x1="0" y1="14" x2="2" y2="14" class="minors"/>
    <line x1="20" y1="14" x2="18" y2="14" class="minors"/>
    <line x1="0" y1="15" x2="2" y2="15" class="minors"/>
    <line x1="20" y1="15" x2="18" y2="15" class="minors"/>
    <line x1="0" y1="16" x2="2" y2="16" class="minors"/>
    <line x1="20" y1="16" x2="18" y2="16" class="minors"/>
    <line x1="0" y1="17" x2="2" y2="17" class="minors"/>
    <line x1="20" y1="17" x2="18" y2="17" class="minors"/>
    <line x1="0" y1="18" x2="2" y2="18" class="minors"/>
    <line x1="20" y1="18" x2="18" y2="18" class="minors"/>
    <line x1="0" y1="19" x2="2" y2="19" class="minors"/>
    <line x1="20" y1="19" x2="18" y2="19" class="minors"/>
    <line x1="0" y1="20" x2="2" y2="20" class="minors"/>
    <line x1="20" y1="20" x2="18" y2="20" class="minors"/>
    <line x1="0" y1="21" x2="2" y2="21" class="minors"/>
    <line x1="20" y1="21" x2="18" y2="21" class="minors"/>
    <line x1="0" y1="22" x2="2" y2="22" class="minors"/>
    <line x1="20" y1="22" x2="18" y2="22" class="minors"/>
    <line x1="0" y1="23" x2="2" y2="23" class="minors"/>
    <line x1="20" y1="23" x2="18" y2="23" class="minors"/>
    <line x1="0" y1="24" x2="2" y2="24" class="minors"/>
    <line x1="20" y1="24" x2="18" y2="24" class="minors"/>
    <line x1="0" y1="25" x2="2" y2="25" class="minors"/>
    <line x1="20" y1="25" x2="18" y2="25" class="minors"/>
    <line x1="0" y1="26" x2="2" y2="26" class="minors"/>
    <line x1="20" y1="26" x2="18" y2="26" class="minors"/>
    <line x1="0" y1="27" x2="2" y2="27" class="minors"/>
    <line x1="20" y1="27" x2="18" y2="27" class="minors"/>
    <line x1="0" y1="28" x2="2" y2="28" class="minors"/>
    <line x1="20" y1="28" x2="18" y2="28" class="minors"/>
    <line x1="0" y1="29" x2="2" y2="29" class="minors"/>
    <line x1="20" y1="29" x2="18" y2="29" class="minors"/>
    <line x1="0" y1="30" x2="2" y2="30" class="minors"/>
    <line x1="20" y1="30" x2="18" y2="30" class="minors"/>
    <line x1="0" y1="31" x2="2" y2="31" class="minors"/>
    <line x1="20" y1="31" x2="18" y2="31" class="minors"/>
    <line x1="0" y1="32" x2="2" y2="32" class="minors"/>
    <line x1="20" y1="32" x2="18" y2="32" class="minors"/>
    <line x1="0" y1="33" x2="2" y2="33" class="minors"/>
    <line x1="20" y1="33" x2="18" y2="33" class="minors"/>
    <line x1="0" y1="34" x2="2" y2="34" class="minors"/>
    <line x1="20" y1="34" x2="18" y2="34" class="minors"/>
    <line x1="0" y1="35" x2="2" y2="35" class="minors"/>
    <line x1="20" y1="35" x2="18" y2="35" class="minors"/>
    <line x1="0" y1="36" x2="2" y2="36" class="minors"/>
    <line x1="20" y1="36" x2="18" y2="36" class="minors"/>
    <line x1="0" y1="37" x2="2" y2="37" class="minors"/>
    <line x1="20" y1="37" x2="18" y2="37" class="minors"/>
    <line x1="0" y1="38" x2="2" y2="38" class="minors"/>
    <line x1="20" y1="38" x2="18" y2="38" class="minors"/>
    <line x1="0" y1="39" x2="2" y2="39" class="minors"/>
    <line x1="20" y1="39" x2="18" y2="39" class="minors"/>
    <line x1="0" y1="40" x2="2" y2="40" class="minors"/>
    <line x1="20" y1="40" x2="18" y2="40" class="minors"/>
    <line x1="0" y1="41" x2="2" y2="41" class="minors"/>
    <line x1="20" y1="41" x2="18" y2="41" class="minors"/>
    <line x1="0" y1="42" x2="2" y2="42" class="minors"/>
    <line x1="20" y1="42" x2="18" y2="42" class="minors"/>
    <line x1="0" y1="43" x2="2" y2="43" class="minors"/>
    <line x1="20" y1="43" x2="18" y2="43" class="minors"/>
    <line x1="0" y1="44" x2="2" y2="44" class="minors"/>
    <line x1="20" y1="44" x2="18" y2="44" class="minors"/>
    <line x1="0" y1="45" x2="2" y2="45" class="minors"/>
    <line x1="20" y1="45" x2="18" y2="45" class="minors"/>
    <line x1="0" y1="46" x2="2" y2="46" class="minors"/>
    <line x1="20" y1="46" x2="18" y2="46" class="minors"/>
    <line x1="0" y1="47" x2="2" y2="47" class="minors"/>
    <line x1="20" y1="47" x2="18" y2="47" class="minors"/>
    <line x1="0" y1="48" x2="2" y2="48" class="minors"/>
    <line x1="20" y1="48" x2="18" y2="48" class="minors"/>
    <line x1="0" y1="49" x2="2" y2="49" class="minors"/>
    <line x1="20" y1="49" x2="18" y2="49" class="minors"/>
    <line x1="0" y1="50" x2="2" y2="50" class="minors"/>
    <line x1="20" y1="50" x2="18" y2="50" class="minors"/>
    <line x1="0" y1="51" x2="2" y2="51" class="minors"/>
    <line x1="20" y1="51" x2="18" y2="51" class="minors"/>
    <line x1="0" y1="52" x2="2" y2="52" class="minors"/>
    <line x1="20" y1="52" x2="18" y2="52" class="minors"/>
    <line x1="0" y1="53" x2="2" y2="53" class="minors"/>
    <line x1="20" y1="53" x2="18" y2="53" class="minors"/>
    <line x1="0" y1="54" x2="2" y2="54" class="minors"/>
    <line x1="20" y1="54" x2="18" y2="54" class="minors"/>
    <line x1="0" y1="55" x2="2" y2="55" class="minors"/>
    <line x1="20" y1="55" x2="18" y2="55" class="minors"/>
    <line x1="0" y1="56" x2="2" y2="56" class="minors"/>
    <line x1="20" y1="56" x2="18" y2="56" class="minors"/>
    <line x1="0" y1="57" x2="2" y2="57" class="minors"/>
    <line x1="20" y1="57" x2="18" y2="57" class="minors"/>
    <line x1="0" y1="58" x2="2" y2="58" class="minors"/>
    <line x1="20" y1="58" x2="18" y2="58" class="minors"/>
    <line x1="0" y1="59" x2="2" y2="59" class="minors"/>
    <line x1="20" y1="59" x2="18" y2="59" class="minors"/>
    <line x1="0" y1="60" x2="2" y2="60" class="minors"/>
    <line x1="20" y1="60" x2="18" y2="60" class="minors"/>
    <line x1="0" y1="61" x2="2" y2="61" class="minors"/>
    <line x1="20" y1="61" x2="18" y2="61" class="minors"/>
    <line x1="0" y1="62" x2="2" y2="62" class="minors"/>
    <line x1="20" y1="62" x2="18" y2="62" class="minors"/>
    <line x1="0" y1="63" x2="2" y2="63" class="minors"/>
    <line x1="20" y1="63" x2="18" y2="63" class="minors"/>
    <line x1="0" y1="64" x2="2" y2="64" class="minors"/>
    <line x1="20" y1="64" x2="18" y2="64" class="minors"/>
    <line x1="0" y1="65" x2="2" y2="65" class="minors"/>
    <line x1="20" y1="65" x2="18" y2="65" class="minors"/>
    <line x1="0" y1="66" x2="2" y2="66" class="minors"/>
    <line x1="20" y1="66" x2="18" y2="66" class="minors"/>
    <line x1="0" y1="67" x2="2" y2="67" class="minors"/>
    <line x1="20" y1="67" x2="18" y2="67" class="minors"/>
    <line x1="0" y1="68" x2="2" y2="68" class="minors"/>
    <line x1="20" y1="68" x2="18" y2="68" class="minors"/>
    <line x1="0" y1="69" x2="2" y2="69" class="minors"/>
    <line x1="20" y1="69" x2="18" y2="69" class="minors"/>
    <line x1="0" y1="70" x2="2" y2="70" class="minors"/>
    <line x1="20" y1="70" x2="18" y2="70" class="minors"/>
    <line x1="0" y1="71" x2="2" y2="71" class="minors"/>
    <line x1="20" y1="71" x2="18" y2="71" class="minors"/>
    <line x1="0" y1="72" x2="2" y2="72" class="minors"/>
    <line x1="20" y1="72" x2="18" y2="72" class="minors"/>
    <line x1="0" y1="73" x2="2" y2="73" class="minors"/>
    <line x1="20" y1="73" x2="18" y2="73" class="minors"/>
    <line x1="0" y1="74" x2="2" y2="74" class="minors"/>
    <line x1="20" y1="74" x2="18" y2="74" class="minors"/>
    <line x1="0" y1="75" x2="2" y2="75" class="minors"/>
    <line x1="20" y1="75" x2="18" y2="75" class="minors"/>
    <line x1="0" y1="76" x2="2" y2="76" class="minors"/>
    <line x1="20" y1="76" x2="18" y2="76" class="minors"/>
    <line x1="0" y1="77" x2="2" y2="77" class="minors"/>
    <line x1="20" y1="77" x2="18" y2="77" class="minors"/>
    <line x1="0" y1="78" x2="2" y2="78" class="minors"/>
    <line x1="20" y1="78" x2="18" y2="78" class="minors"/>
    <line x1="0" y1="79" x2="2" y2="79" class="minors"/>
    <line x1="20" y1="79" x2="18" y2="79" class="minors"/>
    <line x1="0" y1="80" x2="2" y2="80" class="minors"/>
    <line x1="20" y1="80" x2="18" y2="80" class="minors"/>
    <line x1="0" y1="81" x2="2" y2="81" class="minors"/>
    <line x1="20" y1="81" x2="18" y2="81" class="minors"/>
    <line x1="0" y1="82" x2="2" y2="82" class="minors"/>
    <line x1="20" y1="82" x2="18" y2="82" class="minors"/>
    <line x1="0" y1="83" x2="2" y2="83" class="minors"/>
    <line x1="20" y1="83" x2="18" y2="83" class="minors"/>
    <line x1="0" y1="84" x2="2" y2="84" class="minors"/>
    <line x1="20" y1="84" x2="18" y2="84" class="minors"/>
    <line x1="0" y1="85" x2="2" y2="85" class="minors"/>
    <line x1="20" y1="85" x2="18" y2="85" class="minors"/>
    <line x1="0" y1="86" x2="2" y2="86" class="minors"/>
    <line x1="20" y1="86" x2="18" y2="86" class="minors"/>
    <line x1="0" y1="87" x2="2" y2="87" class="minors"/>
    <line x1="20" y1="87" x2="18" y2="87" class="minors"/>
    <line x1="0" y1="88" x2="2" y2="88" class="minors"/>
    <line x1="20" y1="88" x2="18" y2="88" class="minors"/>
    <line x1="0" y1="89" x2="2" y2="89" class="minors"/>
    <line x1="20" y1="89" x2="18" y2="89" class="minors"/>
    <line x1="0" y1="90" x2="2" y2="90" class="minors"/>
    <line x1="20" y1="90" x2="18" y2="90" class="minors"/>
    <line x1="0" y1="91" x2="2" y2="91" class="minors"/>
    <line x1="20" y1="91" x2="18" y2="91" class="minors"/>
    <line x1="0" y1="92" x2="2" y2="92" class="minors"/>
    <line x1="20" y1="92" x2="18" y2="92" class="minors"/>
    <line x1="0" y1="93" x2="2" y2="93" class="minors"/>
    <line x1="20" y1="93" x2="18" y2="93" class="minors"/>
    <line x1="0" y1="94" x2="2" y2="94" class="minors"/>
    <line x1="20" y1="94" x2="18" y2="94" class="minors"/>
    <line x1="0" y1="95" x2="2" y2="95" class="minors"/>
    <line x1="20" y1="95" x2="18" y2="95" class="minors"/>
    <line x1="0" y1="96" x2="2" y2="96" class="minors"/>
    <line x1="20" y1="96" x2="18" y2="96" class="minors"/>
    <line x1="0" y1="97" x2="2" y2="97" class="minors"/>
    <line x1="20" y1="97" x2="18" y2="97" class="minors"/>
    <line x1="0" y1="98" x2="2" y2="98" class="minors"/>
    <line x1="20" y1="98" x2="18" y2="98" class="minors"/>
    <line x1="0" y1="99" x2="2" y2="99" class="minors"/>
    <line x1="20" y1="99" x2="18" y2="99" class="minors"/>
    <line x1="0" y1="100" x2="2" y2="100" class="minors"/>
    <line x1="20" y1="100" x2="18" y2="100" class="minors"/>
    <line x1="0" y1="101" x2="2" y2="101" class="minors"/>
    <line x1="20" y1="101" x2="18" y2="101" class="minors"/>
    <line x1="0" y1="102" x2="2" y2="102" class="minors"/>
    <line x1="20" y1="102" x2="18" y2="102" class="minors"/>
    <line x1="0" y1="103" x2="2" y2="103" class="minors"/>
    <line x1="20" y1="103" x2="18" y2="103" class="minors"/>
    <line x1="0" y1="104" x2="2" y2="104" class="minors"/>
    <line x1="20" y1="104" x2="18" y2="104" class="minors"/>
    <line x1="0" y1="105" x2="2" y2="105" class="minors"/>
    <line x1="20" y1="105" x2="18" y2="105" class="minors"/>
    <line x1="0" y1="106" x2="2" y2="106" class="minors"/>
    <line x1="20" y1="106" x2="18" y2="106" class="minors"/>
    <line x1="0" y1="107" x2="2" y2="107" class="minors"/>
    <line x1="20" y1="107" x2="18" y2="107" class="minors"/>
    <line x1="0" y1="108" x2="2" y2="108" class="minors"/>
    <line x1="20" y1="108" x2="18" y2="108" class="minors"/>
    <line x1="0" y1="109" x2="2" y2="109" class="minors"/>
    <line x1="20" y1="109" x2="18" y2="109" class="minors"/>
    <line x1="0" y1="110" x2="2" y2="110" class="minors"/>
    <line x1="20" y1="110" x2="18" y2="110" class="minors"/>
    <line x1="0" y1="111" x2="2" y2="111" class="minors"/>
    <line x1="20" y1="111" x2="18" y2="111" class="minors"/>
    <line x1="0" y1="112" x2="2" y2="112" class="minors"/>
    <line x1="20" y1="112" x2="18" y2="112" class="minors"/>
    <line x1="0" y1="113" x2="2" y2="113" class="minors"/>
    <line x1="20" y1="113" x2="18" y2="113" class="minors"/>
    <line x1="0" y1="114" x2="2" y2="114" class="minors"/>
    <line x1="20" y1="114" x2="18" y2="114" class="minors"/>
    <line x1="0" y1="115" x2="2" y2="115" class="minors"/>
    <line x1="20" y1="115" x2="18" y2="115" class="minors"/>
    <line x1="0" y1="116" x2="2" y2="116" class="minors"/>
    <line x1="20" y1="116" x2="18" y2="116" class="minors"/>
    <line x1="0" y1="117" x2="2" y2="117" class="minors"/>
    <line x1="20" y1="117" x2="18" y2="117" class="minors"/>
    <line x1="0" y1="118" x2="2" y2="118" class="minors"/>
    <line x1="20" y1="118" x2="18" y2="118" class="minors"/>
    <line x1="0" y1="119" x2="2" y2="119" class="minors"/>
    <line x1="20" y1="119" x2="18" y2="119" class="minors"/>
    <line x1="0" y1="120" x2="2" y2="120" class="minors"/>
    <line x1="20" y1="120" x2="18" y2="120" class="minors"/>
    <line x1="0" y1="121" x2="2" y2="121" class="minors"/>
    <line x1="20" y1="121" x2="18" y2="121" class="minors"/>
    <line x1="0" y1="122" x2="2" y2="122" class="minors"/>
    <line x1="20" y1="122" x2="18" y2="122" class="minors"/>
    <line x1="0" y1="123" x2="2" y2="123" class="minors"/>
    <line x1="20" y1="123" x2="18" y2="123" class="minors"/>
    <line x1="0" y1="124" x2="2" y2="124" class="minors"/>
    <line x1="20" y1="124" x2="18" y2="124" class="minors"/>
    <line x1="0" y1="125" x2="2" y2="125" class="minors"/>
    <line x1="20" y1="125" x2="18" y2="125" class="minors"/>
    <line x1="0" y1="126" x2="2" y2="126" class="minors"/>
    <line x1="20" y1="126" x2="18" y2="126" class="minors"/>
    <line x1="0" y1="127" x2="2" y2="127" class="minors"/>
    <line x1="20" y1="127" x2="18" y2="127" class="minors"/>
    <line x1="0" y1="128" x2="2" y2="128" class="minors"/>
    <line x1="20" y1="128" x2="18" y2="128" class="minors"/>
    <line x1="0" y1="129" x2="2" y2="129" class="minors"/>
    <line x1="20" y1="129" x2="18" y2="129" class="minors"/>
    <line x1="0" y1="130" x2="2" y2="130" class="minors"/>
    <line x1="20" y1="130" x2="18" y2="130" class="minors"/>
    <line x1="0" y1="131" x2="2" y2="131" class="minors"/>
    <line x1="20" y1="131" x2="18" y2="131" class="minors"/>
    <line x1="0" y1="132" x2="2" y2="132" class="minors"/>
    <line x1="20" y1="132" x2="18" y2="132" class="minors"/>
    <line x1="0" y1="133" x2="2" y2="133" class="minors"/>
    <line x1="20" y1="133" x2="18" y2="133" class="minors"/>
    <line x1="0" y1="134" x2="2" y2="134" class="minors"/>
    <line x1="20" y1="134" x2="18" y2="134" class="minors"/>
    <line x1="0" y1="135" x2="2" y2="135" class="minors"/>
    <line x1="20" y1="135" x2="18" y2="135" class="minors"/>
    <line x1="0" y1="136" x2="2" y2="136" class="minors"/>
    <line x1="20" y1="136" x2="18" y2="136" class="minors"/>
    <line x1="0" y1="137" x2="2" y2="137" class="minors"/>
    <line x1="20" y1="137" x2="18" y2="137" class="minors"/>
    <line x1="0" y1="138" x2="2" y2="138" class="minors"/>
    <line x1="20" y1="138" x2="18" y2="138" class="minors"/>
    <line x1="0" y1="139" x2="2" y2="139" class="minors"/>
    <line x1="20" y1="139" x2="18" y2="139" class="minors"/>
    <line x1="0" y1="140" x2="2" y2="140" class="minors"/>
    <line x1="20" y1="140" x2="18" y2="140" class="minors"/>
    <line x1="0" y1="141" x2="2" y2="141" class="minors"/>
    <line x1="20" y1="141" x2="18" y2="141" class="minors"/>
    <line x1="0" y1="142" x2="2" y2="142" class="minors"/>
    <line x1="20" y1="142" x2="18" y2="142" class="minors"/>
    <line x1="0" y1="143" x2="2" y2="143" class="minors"/>
    <line x1="20" y1="143" x2="18" y2="143" class="minors"/>
    <line x1="0" y1="144" x2="2" y2="144" class="minors"/>
    <line x1="20" y1="144" x2="18" y2="144" class="minors"/>
    <line x1="0" y1="145" x2="2" y2="145" class="minors"/>
    <line x1="20" y1="145" x2="18" y2="145" class="minors"/>
    <line x1="0" y1="146" x2="2" y2="146" class="minors"/>
    <line x1="20" y1="146" x2="18" y2="146" class="minors"/>
    <line x1="0" y1="147" x2="2" y2="147" class="minors"/>
    <line x1="20" y1="147" x2="18" y2="147" class="minors"/>
    <line x1="0" y1="148" x2="2" y2="148" class="minors"/>
    <line x1="20" y1="148" x2="18" y2="148" class="minors"/>
    <line x1="0" y1="149" x2="2" y2="149" class="minors"/>
    <line x1="20" y1="149" x2="18" y2="149" class="minors"/>
    <line x1="0" y1="150" x2="2" y2="150" class="minors"/>
    <line x1="20" y1="150" x2="18" y2="150" class="minors"/>
  </g>
  <g id="halves" inkscape:groupmode="layer">
    <line x1="0" y1="0" x2="4" y2="0" class="halves"/>
    <line x1="20" y1="0" x2="16" y2="0" class="halves"/>
    <line x1="0" y1="5" x2="4" y2="5" class="halves"/>
    <line x1="20" y1="5" x2="16" y2="5" class="halves"/>
    <line x1="0" y1="10" x2="4" y2="10" class="halves"/>
    <line x1="20" y1="10" x2="16" y2="10" class="halves"/>
    <line x1="0" y1="15" x2="4" y2="15" class="halves"/>
    <line x1="20" y1="15" x2="16" y2="15" class="halves"/>
    <line x1="0" y1="20" x2="4" y2="20" class="halves"/>
    <line x1="20" y1="20" x2="16" y2="20" class="halves"/>
    <line x1="0" y1="25" x2="4" y2="25" class="halves"/>
    <line x1="20" y1="25" x2="16" y2="25" class="halves"/>
    <line x1="0" y1="30" x2="4" y2="30" class="halves"/>
    <line x1="20" y1="30" x2="16" y2="30" class="halves"/>
    <line x1="0" y1="35" x2="4" y2="35" class="halves"/>
    <line x1="20" y1="35" x2="16" y2="35" class="halves"/>
    <line x1="0" y1="40" x2="4" y2="40" class="halves"/>
    <line x1="20" y1="40" x2="16" y2="40" class="halves"/>
    <line x1="0" y1="45" x2="4" y2="45" class="halves"/>
    <line x1="20" y1="45" x2="16" y2="45" class="halves"/>
    <line x1="0" y1="50" x2="4" y2="50" class="halves"/>
    <line x1="20" y1="50" x2="16" y2="50" class="halves"/>
    <line x1="0" y1="55" x2="4" y2="55" class="halves"/>
    <line x1="20" y1="55" x2="16" y2="55" class="halves"/>
    <line x1="0" y1="60" x2="4" y2="60" class="halves"/>
    <line x1="20" y1="60" x2="16" y2="60" class="halves"/>
    <line x1="0" y1="65" x2="4" y2="65" class="halves"/>
    <line x1="20" y1="65" x2="16" y2="65" class="halves"/>
    <line x1="0" y1="70" x2="4" y2="70" class="halves"/>
    <line x1="20" y1="70" x2="16" y2="70" class="halves"/>
    <line x1="0" y1="75" x2="4" y2="75" class="halves"/>
    <line x1="20" y1="75" x2="16" y2="75" class="halves"/>
    <line x1="0" y1="80" x2="4" y2="80" class="halves"/>
    <line x1="20" y1="80" x2="16" y2="80" class="halves"/>
    <line x1="0" y1="85" x2="4" y2="85" class="halves"/>
    <line x1="20" y1="85" x2="16" y2="85" class="halves"/>
    <line x1="0" y1="90" x2="4" y2="90" class="halves"/>
    <line x1="20" y1="90" x2="16" y2="90" class="halves"/>
    <line x1="0" y1="95" x2="4" y2="95" class="halves"/>
    <line x1="20" y1="95" x2="16" y2="95" class="halves"/>
    <line x1="0" y1="100" x2="4" y2="100" class="halves"/>
    <line x1="20" y1="100" x2="16" y2="100" class="halves"/>
    <line x1="0" y1="105" x2="4" y2="105" class="halves"/>
    <line x1="20" y1="105" x2="16" y2="105" class="halves"/>
    <line x1="0" y1="110" x2="4" y2="110" class="halves"/>
    <line x1="20" y1="110" x2="16" y2="110" class="halves"/>
    <line x1="0" y1="115" x2="4" y2="115" class="halves"/>
    <line x1="20" y1="115" x2="16" y2="115" class="halves"/>
    <line x1="0" y1="120" x2="4" y2="120" class="halves"/>
    <line x1="20" y1="120" x2="16" y2="120" class="halves"/>
    <line x1="0" y1="125" x2="4" y2="125" class="halves"/>
    <line x1="20" y1="125" x2="16" y2="125" class="halves"/>
    <line x1="0" y1="130" x2="4" y2="130" class="halves"/>
    <line x1="20" y1="130" x2="16" y2="130" class="halves"/>
    <line x1="0" y1="135" x2="4" y2="135" class="halves"/>
    <line x1="20" y1="135" x2="16" y2="135" class="halves"/>
    <line x1="0" y1="140" x2="4" y2="140" class="halves"/>
    <line x1="20" y1="140" x2="16" y2="140" class="halves"/>
    <line x1="0" y1="145" x2="4" y2="145" class="halves"/>
    <line x1="20" y1="145" x2="16" y2="145" class="halves"/>
    <line x1="0" y1="150" x2="4" y2="150" class="halves"/>
    <line x1="20" y1="150" x2="16" y2="150" class="halves"/>
  </g>
  <g id="majors" inkscape:groupmode="layer">
    <line x1="0" y1="10" x2="6" y2="10" class="majors"/>
    <line x1="20" y1="10" x2="14" y2="10" class="majors"/>
    <line x1="0" y1="20" x2="6" y2="20" class="majors"/>
    <line x1="20" y1="20" x2="14" y2="20" class="majors"/>
    <line x1="0" y1="30" x2="6" y2="30" class="majors"/>
    <line x1="20" y1="30" x2="14" y2="30" class="majors"/>
    <line x1="0" y1="40" x2="6" y2="40" class="majors"/>
    <line x1="20" y1="40" x2="14" y2="40" class="majors"/>
    <line x1="0" y1="50" x2="6" y2="50" class="majors"/>
    <line x1="20" y1="50" x2="14" y2="50" class="majors"/>
    <line x1="0" y1="60" x2="6" y2="60" class="majors"/>
    <line x1="20" y1="60" x2="14" y2="60" class="majors"/>
    <line x1="0" y1="70" x2="6" y2="70" class="majors"/>
    <line x1="20" y1="70" x2="14" y2="70" class="majors"/>
    <line x1="0" y1="80" x2="6" y2="80" class="majors"/>
    <line x1="20" y1="80" x2="14" y2="80" class="majors"/>
    <line x1="0" y1="90" x2="6" y2="90" class="majors"/>
    <line x1="20" y1="90" x2="14" y2="90" class="majors"/>
    <line x1="0" y1="100" x2="6" y2="100" class="majors"/>
    <line x1="20" y1="100" x2="14" y2="100" class="majors"/>
    <line x1="0" y1="110" x2="6" y2="110" class="majors"/>
    <line x1="20" y1="110" x2="14" y2="110" class="majors"/>
    <line x1="0" y1="120" x2="6" y2="120" class="majors"/>
    <line x1="20" y1="120" x2="14" y2="120" class="majors"/>
    <line x1="0" y1="130" x2="6" y2="130" class="majors"/>
    <line x1="20" y1="130" x2="14" y2="130" class="majors"/>
    <line x1="0" y1="140" x2="6" y2="140" class="majors"/>
    <line x1="20" y1="140" x2="14" y2="140" class="majors"/>
    <g id="labels" inkscape:groupmode="layer">
      <text x="7.4" y="3.5" class="labels"> 0</text>
      <text x="7.4" y="11.4" class="labels"> 1</text>
      <text x="7.4" y="21.4" class="labels"> 2</text>
      <text x="7.4" y="31.4" class="labels"> 3</text>
      <text x="7.4" y="41.4" class="labels"> 4</text>
      <text x="7.4" y="51.4" class="labels"> 5</text>
      <text x="7.4" y="61.4" class="labels"> 6</text>
      <text x="7.4" y="71.4" class="labels"> 7</text>
      <text x="7.4" y="81.4" class="labels"> 8</text>
      <text x="7.4" y="91.4" class="labels"> 9</text>
      <text x="7.4" y="101.4" class="labels">10</text>
      <text x="7.4" y="111.4" class="labels">11</text>
      <text x="7.4" y="121.4" class="labels">12</text>
      <text x="7.4" y="131.4" class="labels">13</text>
      <text x="7.4" y="141.4" class="labels">14</text>
      <text x="7.4" y="149" class="labels">15</text>
    </g>
  </g>
</svg>
