<?xml version="1.0" standalone="no"?>
<svg
  xmlns="http://www.w3.org/2000/svg"
  xmlns:_="http://sevgi.roktas.dev"
  xmlns:inkscape="http://www.inkscape.org/namespaces/inkscape"
  xmlns:sodipodi="http://sodipodi.sourceforge.net/DTD/sodipodi-0.dtd"
  shape-rendering="geometricPrecision"
  width="90.0mm"
  height="60.0mm"
  viewBox="0 0 90 60"
>
  <rect width="100%" height="100%" fill="white"/>
  <g id="Guides" inkscape:groupmode="layer" sodipodi:insensitive="true">
    <style type="text/css">
      <![CDATA[
        .frame {
          fill: none;
          stroke: blue;
          stroke-width: 0.6;
        }
        .major {
          fill: none;
          stroke: blue;
          stroke-width: 0.4;
        }
        .minor {
          fill: none;
          stroke: magenta;
          stroke-width: 0.12;
        }
      ]]>
    </style>
    <g id="Squares" inkscape:groupmode="layer">
      <path d="M 0 0 L 90 0" class="rule minor horizontal"/>
      <path d="M 0 6 L 90 6" class="rule minor horizontal"/>
      <path d="M 0 12 L 90 12" class="rule minor horizontal"/>
      <path d="M 0 18 L 90 18" class="rule minor horizontal"/>
      <path d="M 0 24 L 90 24" class="rule minor horizontal"/>
      <path d="M 0 30 L 90 30" class="rule minor horizontal"/>
      <path d="M 0 36 L 90 36" class="rule minor horizontal"/>
      <path d="M 0 42 L 90 42" class="rule minor horizontal"/>
      <path d="M 0 48 L 90 48" class="rule minor horizontal"/>
      <path d="M 0 54 L 90 54" class="rule minor horizontal"/>
      <path d="M 0 60 L 90 60" class="rule minor horizontal"/>
      <path d="M 0 0 L 0 60" class="rule minor vertical"/>
      <path d="M 6 0 L 6 60" class="rule minor vertical"/>
      <path d="M 12 0 L 12 60" class="rule minor vertical"/>
      <path d="M 18 0 L 18 60" class="rule minor vertical"/>
      <path d="M 24 0 L 24 60" class="rule minor vertical"/>
      <path d="M 30 0 L 30 60" class="rule minor vertical"/>
      <path d="M 36 0 L 36 60" class="rule minor vertical"/>
      <path d="M 42 0 L 42 60" class="rule minor vertical"/>
      <path d="M 48 0 L 48 60" class="rule minor vertical"/>
      <path d="M 54 0 L 54 60" class="rule minor vertical"/>
      <path d="M 60 0 L 60 60" class="rule minor vertical"/>
      <path d="M 66 0 L 66 60" class="rule minor vertical"/>
      <path d="M 72 0 L 72 60" class="rule minor vertical"/>
      <path d="M 78 0 L 78 60" class="rule minor vertical"/>
      <path d="M 84 0 L 84 60" class="rule minor vertical"/>
      <path d="M 90 0 L 90 60" class="rule minor vertical"/>
      <path d="M 0 0 L 90 0" class="rule major horizontal"/>
      <path d="M 0 30 L 90 30" class="rule major horizontal"/>
      <path d="M 0 60 L 90 60" class="rule major horizontal"/>
      <path d="M 0 0 L 0 60" class="rule major vertical"/>
      <path d="M 30 0 L 30 60" class="rule major vertical"/>
      <path d="M 60 0 L 60 60" class="rule major vertical"/>
      <path d="M 90 0 L 90 60" class="rule major vertical"/>
    </g>
    <rect x="0.3" y="0.3" width="89.4" height="59.4" class="frame rule"/>
  </g>
</svg>
