<svg width="50" height="50">
  <rect width="50" height="50" rx="1" fill="white"/>
  <symbol id="star">
    <title>Star</title>
    <path
      d="m 7.06716,10 v -2.930223 h 2.932843 l -2.073449,-2.073131 2.073449,-2.068098
h -2.932843 v -2.928548 l -2.07848,2.074807 -2.067578,-2.074807 v 2.928547
h -2.921102 l 2.060869,2.068098 -2.060869,2.073131 h 2.921102 v 2.930223
l 2.067578,-2.066419 2.07848,2.066419
"
      fill="purple"
    />
  </symbol>
  <use id="star-1-1" href="#star" class="tile-row-1 tile-row-first tile-col-1 tile-col-first" x="5" y="5"/>
  <use id="star-1-2" href="#star" class="tile-row-1 tile-row-first tile-col-2" x="15" y="5"/>
  <use id="star-1-3" href="#star" class="tile-row-1 tile-row-first tile-col-3" x="25" y="5"/>
  <use id="star-1-4" href="#star" class="tile-row-1 tile-row-first tile-col-4 tile-col-last" x="35" y="5"/>
  <use id="star-2-1" href="#star" class="tile-row-2 tile-col-1 tile-col-first" x="5" y="15"/>
  <use id="star-2-2" href="#star" class="tile-row-2 tile-col-2" x="15" y="15"/>
  <use id="star-2-3" href="#star" class="tile-row-2 tile-col-3" x="25" y="15"/>
  <use id="star-2-4" href="#star" class="tile-row-2 tile-col-4 tile-col-last" x="35" y="15"/>
  <use id="star-3-1" href="#star" class="tile-row-3 tile-col-1 tile-col-first" x="5" y="25"/>
  <use id="star-3-2" href="#star" class="tile-row-3 tile-col-2" x="15" y="25"/>
  <use id="star-3-3" href="#star" class="tile-row-3 tile-col-3" x="25" y="25"/>
  <use id="star-3-4" href="#star" class="tile-row-3 tile-col-4 tile-col-last" x="35" y="25"/>
  <use id="star-4-1" href="#star" class="tile-row-4 tile-row-last tile-col-1 tile-col-first" x="5" y="35"/>
  <use id="star-4-2" href="#star" class="tile-row-4 tile-row-last tile-col-2" x="15" y="35"/>
  <use id="star-4-3" href="#star" class="tile-row-4 tile-row-last tile-col-3" x="25" y="35"/>
  <use id="star-4-4" href="#star" class="tile-row-4 tile-row-last tile-col-4 tile-col-last" x="35" y="35"/>
</svg>
