<svg viewBox="0 0 160 60">
  <style type="text/css">
    <![CDATA[
      .cell {
        stroke: white;
        rx: 2;
      }
    ]]>
  </style>
  <rect class="cell" x="0" y="0" width="20" height="20" fill="#FF6961"/>
  <rect class="cell" x="0" y="20" width="20" height="20" fill="#77DD77"/>
  <rect class="cell" x="0" y="40" width="20" height="20" fill="#FFD700"/>
  <rect class="cell" x="20" y="0" width="20" height="20" fill="#77DD77"/>
  <rect class="cell" x="20" y="20" width="20" height="20" fill="#FFD700"/>
  <rect class="cell" x="20" y="40" width="20" height="20" fill="#FF6961"/>
  <rect class="cell" x="40" y="0" width="20" height="20" fill="#FFD700"/>
  <rect class="cell" x="40" y="20" width="20" height="20" fill="#FF6961"/>
  <rect class="cell" x="40" y="40" width="20" height="20" fill="#77DD77"/>
  <rect class="cell" x="60" y="0" width="20" height="20" fill="#FF6961"/>
  <rect class="cell" x="60" y="20" width="20" height="20" fill="#77DD77"/>
  <rect class="cell" x="60" y="40" width="20" height="20" fill="#FFD700"/>
  <rect class="cell" x="80" y="0" width="20" height="20" fill="#77DD77"/>
  <rect class="cell" x="80" y="20" width="20" height="20" fill="#FFD700"/>
  <rect class="cell" x="80" y="40" width="20" height="20" fill="#FF6961"/>
  <rect class="cell" x="100" y="0" width="20" height="20" fill="#FFD700"/>
  <rect class="cell" x="100" y="20" width="20" height="20" fill="#FF6961"/>
  <rect class="cell" x="100" y="40" width="20" height="20" fill="#77DD77"/>
  <rect class="cell" x="120" y="0" width="20" height="20" fill="#FF6961"/>
  <rect class="cell" x="120" y="20" width="20" height="20" fill="#77DD77"/>
  <rect class="cell" x="120" y="40" width="20" height="20" fill="#FFD700"/>
  <rect class="cell" x="140" y="0" width="20" height="20" fill="#77DD77"/>
  <rect class="cell" x="140" y="20" width="20" height="20" fill="#FFD700"/>
  <rect class="cell" x="140" y="40" width="20" height="20" fill="#FF6961"/>
</svg>
