<?xml version="1.0" standalone="no"?>
<svg xmlns="http://www.w3.org/2000/svg" width="210mm" height="50mm" viewBox="0 0 210 50">
  <style type="text/css">
    <![CDATA[
      .labels {
        fill: white;
        font: 3pt monospace;
      }
      .majors {
        stroke: white;
        stroke-width: 0.2;
      }
      .halves {
        stroke: white;
        stroke-width: 0.1;
      }
      .minors {
        stroke: white;
        stroke-width: 0.1;
      }
      .frame {
        stroke: white;
        stroke-width: 0.1;
        fill: none;
      }
    ]]>
  </style>
  <rect id="frame" width="150" height="20" class="frame"/>
  <g id="minors">
    <path d="M 0 0 v 2" class="minors"/>
    <path d="M 0 20 v -2" class="minors"/>
    <path d="M 1 0 v 2" class="minors"/>
    <path d="M 1 20 v -2" class="minors"/>
    <path d="M 2 0 v 2" class="minors"/>
    <path d="M 2 20 v -2" class="minors"/>
    <path d="M 3 0 v 2" class="minors"/>
    <path d="M 3 20 v -2" class="minors"/>
    <path d="M 4 0 v 2" class="minors"/>
    <path d="M 4 20 v -2" class="minors"/>
    <path d="M 5 0 v 2" class="minors"/>
    <path d="M 5 20 v -2" class="minors"/>
    <path d="M 6 0 v 2" class="minors"/>
    <path d="M 6 20 v -2" class="minors"/>
    <path d="M 7 0 v 2" class="minors"/>
    <path d="M 7 20 v -2" class="minors"/>
    <path d="M 8 0 v 2" class="minors"/>
    <path d="M 8 20 v -2" class="minors"/>
    <path d="M 9 0 v 2" class="minors"/>
    <path d="M 9 20 v -2" class="minors"/>
    <path d="M 10 0 v 2" class="minors"/>
    <path d="M 10 20 v -2" class="minors"/>
    <path d="M 11 0 v 2" class="minors"/>
    <path d="M 11 20 v -2" class="minors"/>
    <path d="M 12 0 v 2" class="minors"/>
    <path d="M 12 20 v -2" class="minors"/>
    <path d="M 13 0 v 2" class="minors"/>
    <path d="M 13 20 v -2" class="minors"/>
    <path d="M 14 0 v 2" class="minors"/>
    <path d="M 14 20 v -2" class="minors"/>
    <path d="M 15 0 v 2" class="minors"/>
    <path d="M 15 20 v -2" class="minors"/>
    <path d="M 16 0 v 2" class="minors"/>
    <path d="M 16 20 v -2" class="minors"/>
    <path d="M 17 0 v 2" class="minors"/>
    <path d="M 17 20 v -2" class="minors"/>
    <path d="M 18 0 v 2" class="minors"/>
    <path d="M 18 20 v -2" class="minors"/>
    <path d="M 19 0 v 2" class="minors"/>
    <path d="M 19 20 v -2" class="minors"/>
    <path d="M 20 0 v 2" class="minors"/>
    <path d="M 20 20 v -2" class="minors"/>
    <path d="M 21 0 v 2" class="minors"/>
    <path d="M 21 20 v -2" class="minors"/>
    <path d="M 22 0 v 2" class="minors"/>
    <path d="M 22 20 v -2" class="minors"/>
    <path d="M 23 0 v 2" class="minors"/>
    <path d="M 23 20 v -2" class="minors"/>
    <path d="M 24 0 v 2" class="minors"/>
    <path d="M 24 20 v -2" class="minors"/>
    <path d="M 25 0 v 2" class="minors"/>
    <path d="M 25 20 v -2" class="minors"/>
    <path d="M 26 0 v 2" class="minors"/>
    <path d="M 26 20 v -2" class="minors"/>
    <path d="M 27 0 v 2" class="minors"/>
    <path d="M 27 20 v -2" class="minors"/>
    <path d="M 28 0 v 2" class="minors"/>
    <path d="M 28 20 v -2" class="minors"/>
    <path d="M 29 0 v 2" class="minors"/>
    <path d="M 29 20 v -2" class="minors"/>
    <path d="M 30 0 v 2" class="minors"/>
    <path d="M 30 20 v -2" class="minors"/>
    <path d="M 31 0 v 2" class="minors"/>
    <path d="M 31 20 v -2" class="minors"/>
    <path d="M 32 0 v 2" class="minors"/>
    <path d="M 32 20 v -2" class="minors"/>
    <path d="M 33 0 v 2" class="minors"/>
    <path d="M 33 20 v -2" class="minors"/>
    <path d="M 34 0 v 2" class="minors"/>
    <path d="M 34 20 v -2" class="minors"/>
    <path d="M 35 0 v 2" class="minors"/>
    <path d="M 35 20 v -2" class="minors"/>
    <path d="M 36 0 v 2" class="minors"/>
    <path d="M 36 20 v -2" class="minors"/>
    <path d="M 37 0 v 2" class="minors"/>
    <path d="M 37 20 v -2" class="minors"/>
    <path d="M 38 0 v 2" class="minors"/>
    <path d="M 38 20 v -2" class="minors"/>
    <path d="M 39 0 v 2" class="minors"/>
    <path d="M 39 20 v -2" class="minors"/>
    <path d="M 40 0 v 2" class="minors"/>
    <path d="M 40 20 v -2" class="minors"/>
    <path d="M 41 0 v 2" class="minors"/>
    <path d="M 41 20 v -2" class="minors"/>
    <path d="M 42 0 v 2" class="minors"/>
    <path d="M 42 20 v -2" class="minors"/>
    <path d="M 43 0 v 2" class="minors"/>
    <path d="M 43 20 v -2" class="minors"/>
    <path d="M 44 0 v 2" class="minors"/>
    <path d="M 44 20 v -2" class="minors"/>
    <path d="M 45 0 v 2" class="minors"/>
    <path d="M 45 20 v -2" class="minors"/>
    <path d="M 46 0 v 2" class="minors"/>
    <path d="M 46 20 v -2" class="minors"/>
    <path d="M 47 0 v 2" class="minors"/>
    <path d="M 47 20 v -2" class="minors"/>
    <path d="M 48 0 v 2" class="minors"/>
    <path d="M 48 20 v -2" class="minors"/>
    <path d="M 49 0 v 2" class="minors"/>
    <path d="M 49 20 v -2" class="minors"/>
    <path d="M 50 0 v 2" class="minors"/>
    <path d="M 50 20 v -2" class="minors"/>
    <path d="M 51 0 v 2" class="minors"/>
    <path d="M 51 20 v -2" class="minors"/>
    <path d="M 52 0 v 2" class="minors"/>
    <path d="M 52 20 v -2" class="minors"/>
    <path d="M 53 0 v 2" class="minors"/>
    <path d="M 53 20 v -2" class="minors"/>
    <path d="M 54 0 v 2" class="minors"/>
    <path d="M 54 20 v -2" class="minors"/>
    <path d="M 55 0 v 2" class="minors"/>
    <path d="M 55 20 v -2" class="minors"/>
    <path d="M 56 0 v 2" class="minors"/>
    <path d="M 56 20 v -2" class="minors"/>
    <path d="M 57 0 v 2" class="minors"/>
    <path d="M 57 20 v -2" class="minors"/>
    <path d="M 58 0 v 2" class="minors"/>
    <path d="M 58 20 v -2" class="minors"/>
    <path d="M 59 0 v 2" class="minors"/>
    <path d="M 59 20 v -2" class="minors"/>
    <path d="M 60 0 v 2" class="minors"/>
    <path d="M 60 20 v -2" class="minors"/>
    <path d="M 61 0 v 2" class="minors"/>
    <path d="M 61 20 v -2" class="minors"/>
    <path d="M 62 0 v 2" class="minors"/>
    <path d="M 62 20 v -2" class="minors"/>
    <path d="M 63 0 v 2" class="minors"/>
    <path d="M 63 20 v -2" class="minors"/>
    <path d="M 64 0 v 2" class="minors"/>
    <path d="M 64 20 v -2" class="minors"/>
    <path d="M 65 0 v 2" class="minors"/>
    <path d="M 65 20 v -2" class="minors"/>
    <path d="M 66 0 v 2" class="minors"/>
    <path d="M 66 20 v -2" class="minors"/>
    <path d="M 67 0 v 2" class="minors"/>
    <path d="M 67 20 v -2" class="minors"/>
    <path d="M 68 0 v 2" class="minors"/>
    <path d="M 68 20 v -2" class="minors"/>
    <path d="M 69 0 v 2" class="minors"/>
    <path d="M 69 20 v -2" class="minors"/>
    <path d="M 70 0 v 2" class="minors"/>
    <path d="M 70 20 v -2" class="minors"/>
    <path d="M 71 0 v 2" class="minors"/>
    <path d="M 71 20 v -2" class="minors"/>
    <path d="M 72 0 v 2" class="minors"/>
    <path d="M 72 20 v -2" class="minors"/>
    <path d="M 73 0 v 2" class="minors"/>
    <path d="M 73 20 v -2" class="minors"/>
    <path d="M 74 0 v 2" class="minors"/>
    <path d="M 74 20 v -2" class="minors"/>
    <path d="M 75 0 v 2" class="minors"/>
    <path d="M 75 20 v -2" class="minors"/>
    <path d="M 76 0 v 2" class="minors"/>
    <path d="M 76 20 v -2" class="minors"/>
    <path d="M 77 0 v 2" class="minors"/>
    <path d="M 77 20 v -2" class="minors"/>
    <path d="M 78 0 v 2" class="minors"/>
    <path d="M 78 20 v -2" class="minors"/>
    <path d="M 79 0 v 2" class="minors"/>
    <path d="M 79 20 v -2" class="minors"/>
    <path d="M 80 0 v 2" class="minors"/>
    <path d="M 80 20 v -2" class="minors"/>
    <path d="M 81 0 v 2" class="minors"/>
    <path d="M 81 20 v -2" class="minors"/>
    <path d="M 82 0 v 2" class="minors"/>
    <path d="M 82 20 v -2" class="minors"/>
    <path d="M 83 0 v 2" class="minors"/>
    <path d="M 83 20 v -2" class="minors"/>
    <path d="M 84 0 v 2" class="minors"/>
    <path d="M 84 20 v -2" class="minors"/>
    <path d="M 85 0 v 2" class="minors"/>
    <path d="M 85 20 v -2" class="minors"/>
    <path d="M 86 0 v 2" class="minors"/>
    <path d="M 86 20 v -2" class="minors"/>
    <path d="M 87 0 v 2" class="minors"/>
    <path d="M 87 20 v -2" class="minors"/>
    <path d="M 88 0 v 2" class="minors"/>
    <path d="M 88 20 v -2" class="minors"/>
    <path d="M 89 0 v 2" class="minors"/>
    <path d="M 89 20 v -2" class="minors"/>
    <path d="M 90 0 v 2" class="minors"/>
    <path d="M 90 20 v -2" class="minors"/>
    <path d="M 91 0 v 2" class="minors"/>
    <path d="M 91 20 v -2" class="minors"/>
    <path d="M 92 0 v 2" class="minors"/>
    <path d="M 92 20 v -2" class="minors"/>
    <path d="M 93 0 v 2" class="minors"/>
    <path d="M 93 20 v -2" class="minors"/>
    <path d="M 94 0 v 2" class="minors"/>
    <path d="M 94 20 v -2" class="minors"/>
    <path d="M 95 0 v 2" class="minors"/>
    <path d="M 95 20 v -2" class="minors"/>
    <path d="M 96 0 v 2" class="minors"/>
    <path d="M 96 20 v -2" class="minors"/>
    <path d="M 97 0 v 2" class="minors"/>
    <path d="M 97 20 v -2" class="minors"/>
    <path d="M 98 0 v 2" class="minors"/>
    <path d="M 98 20 v -2" class="minors"/>
    <path d="M 99 0 v 2" class="minors"/>
    <path d="M 99 20 v -2" class="minors"/>
    <path d="M 100 0 v 2" class="minors"/>
    <path d="M 100 20 v -2" class="minors"/>
    <path d="M 101 0 v 2" class="minors"/>
    <path d="M 101 20 v -2" class="minors"/>
    <path d="M 102 0 v 2" class="minors"/>
    <path d="M 102 20 v -2" class="minors"/>
    <path d="M 103 0 v 2" class="minors"/>
    <path d="M 103 20 v -2" class="minors"/>
    <path d="M 104 0 v 2" class="minors"/>
    <path d="M 104 20 v -2" class="minors"/>
    <path d="M 105 0 v 2" class="minors"/>
    <path d="M 105 20 v -2" class="minors"/>
    <path d="M 106 0 v 2" class="minors"/>
    <path d="M 106 20 v -2" class="minors"/>
    <path d="M 107 0 v 2" class="minors"/>
    <path d="M 107 20 v -2" class="minors"/>
    <path d="M 108 0 v 2" class="minors"/>
    <path d="M 108 20 v -2" class="minors"/>
    <path d="M 109 0 v 2" class="minors"/>
    <path d="M 109 20 v -2" class="minors"/>
    <path d="M 110 0 v 2" class="minors"/>
    <path d="M 110 20 v -2" class="minors"/>
    <path d="M 111 0 v 2" class="minors"/>
    <path d="M 111 20 v -2" class="minors"/>
    <path d="M 112 0 v 2" class="minors"/>
    <path d="M 112 20 v -2" class="minors"/>
    <path d="M 113 0 v 2" class="minors"/>
    <path d="M 113 20 v -2" class="minors"/>
    <path d="M 114 0 v 2" class="minors"/>
    <path d="M 114 20 v -2" class="minors"/>
    <path d="M 115 0 v 2" class="minors"/>
    <path d="M 115 20 v -2" class="minors"/>
    <path d="M 116 0 v 2" class="minors"/>
    <path d="M 116 20 v -2" class="minors"/>
    <path d="M 117 0 v 2" class="minors"/>
    <path d="M 117 20 v -2" class="minors"/>
    <path d="M 118 0 v 2" class="minors"/>
    <path d="M 118 20 v -2" class="minors"/>
    <path d="M 119 0 v 2" class="minors"/>
    <path d="M 119 20 v -2" class="minors"/>
    <path d="M 120 0 v 2" class="minors"/>
    <path d="M 120 20 v -2" class="minors"/>
    <path d="M 121 0 v 2" class="minors"/>
    <path d="M 121 20 v -2" class="minors"/>
    <path d="M 122 0 v 2" class="minors"/>
    <path d="M 122 20 v -2" class="minors"/>
    <path d="M 123 0 v 2" class="minors"/>
    <path d="M 123 20 v -2" class="minors"/>
    <path d="M 124 0 v 2" class="minors"/>
    <path d="M 124 20 v -2" class="minors"/>
    <path d="M 125 0 v 2" class="minors"/>
    <path d="M 125 20 v -2" class="minors"/>
    <path d="M 126 0 v 2" class="minors"/>
    <path d="M 126 20 v -2" class="minors"/>
    <path d="M 127 0 v 2" class="minors"/>
    <path d="M 127 20 v -2" class="minors"/>
    <path d="M 128 0 v 2" class="minors"/>
    <path d="M 128 20 v -2" class="minors"/>
    <path d="M 129 0 v 2" class="minors"/>
    <path d="M 129 20 v -2" class="minors"/>
    <path d="M 130 0 v 2" class="minors"/>
    <path d="M 130 20 v -2" class="minors"/>
    <path d="M 131 0 v 2" class="minors"/>
    <path d="M 131 20 v -2" class="minors"/>
    <path d="M 132 0 v 2" class="minors"/>
    <path d="M 132 20 v -2" class="minors"/>
    <path d="M 133 0 v 2" class="minors"/>
    <path d="M 133 20 v -2" class="minors"/>
    <path d="M 134 0 v 2" class="minors"/>
    <path d="M 134 20 v -2" class="minors"/>
    <path d="M 135 0 v 2" class="minors"/>
    <path d="M 135 20 v -2" class="minors"/>
    <path d="M 136 0 v 2" class="minors"/>
    <path d="M 136 20 v -2" class="minors"/>
    <path d="M 137 0 v 2" class="minors"/>
    <path d="M 137 20 v -2" class="minors"/>
    <path d="M 138 0 v 2" class="minors"/>
    <path d="M 138 20 v -2" class="minors"/>
    <path d="M 139 0 v 2" class="minors"/>
    <path d="M 139 20 v -2" class="minors"/>
    <path d="M 140 0 v 2" class="minors"/>
    <path d="M 140 20 v -2" class="minors"/>
    <path d="M 141 0 v 2" class="minors"/>
    <path d="M 141 20 v -2" class="minors"/>
    <path d="M 142 0 v 2" class="minors"/>
    <path d="M 142 20 v -2" class="minors"/>
    <path d="M 143 0 v 2" class="minors"/>
    <path d="M 143 20 v -2" class="minors"/>
    <path d="M 144 0 v 2" class="minors"/>
    <path d="M 144 20 v -2" class="minors"/>
    <path d="M 145 0 v 2" class="minors"/>
    <path d="M 145 20 v -2" class="minors"/>
    <path d="M 146 0 v 2" class="minors"/>
    <path d="M 146 20 v -2" class="minors"/>
    <path d="M 147 0 v 2" class="minors"/>
    <path d="M 147 20 v -2" class="minors"/>
    <path d="M 148 0 v 2" class="minors"/>
    <path d="M 148 20 v -2" class="minors"/>
    <path d="M 149 0 v 2" class="minors"/>
    <path d="M 149 20 v -2" class="minors"/>
    <path d="M 150 0 v 2" class="minors"/>
    <path d="M 150 20 v -2" class="minors"/>
  </g>
  <g id="halves">
    <path d="M 0 0 v 4" class="minors"/>
    <path d="M 0 20 v -4" class="minors"/>
    <path d="M 5 0 v 4" class="minors"/>
    <path d="M 5 20 v -4" class="minors"/>
    <path d="M 10 0 v 4" class="minors"/>
    <path d="M 10 20 v -4" class="minors"/>
    <path d="M 15 0 v 4" class="minors"/>
    <path d="M 15 20 v -4" class="minors"/>
    <path d="M 20 0 v 4" class="minors"/>
    <path d="M 20 20 v -4" class="minors"/>
    <path d="M 25 0 v 4" class="minors"/>
    <path d="M 25 20 v -4" class="minors"/>
    <path d="M 30 0 v 4" class="minors"/>
    <path d="M 30 20 v -4" class="minors"/>
    <path d="M 35 0 v 4" class="minors"/>
    <path d="M 35 20 v -4" class="minors"/>
    <path d="M 40 0 v 4" class="minors"/>
    <path d="M 40 20 v -4" class="minors"/>
    <path d="M 45 0 v 4" class="minors"/>
    <path d="M 45 20 v -4" class="minors"/>
    <path d="M 50 0 v 4" class="minors"/>
    <path d="M 50 20 v -4" class="minors"/>
    <path d="M 55 0 v 4" class="minors"/>
    <path d="M 55 20 v -4" class="minors"/>
    <path d="M 60 0 v 4" class="minors"/>
    <path d="M 60 20 v -4" class="minors"/>
    <path d="M 65 0 v 4" class="minors"/>
    <path d="M 65 20 v -4" class="minors"/>
    <path d="M 70 0 v 4" class="minors"/>
    <path d="M 70 20 v -4" class="minors"/>
    <path d="M 75 0 v 4" class="minors"/>
    <path d="M 75 20 v -4" class="minors"/>
    <path d="M 80 0 v 4" class="minors"/>
    <path d="M 80 20 v -4" class="minors"/>
    <path d="M 85 0 v 4" class="minors"/>
    <path d="M 85 20 v -4" class="minors"/>
    <path d="M 90 0 v 4" class="minors"/>
    <path d="M 90 20 v -4" class="minors"/>
    <path d="M 95 0 v 4" class="minors"/>
    <path d="M 95 20 v -4" class="minors"/>
    <path d="M 100 0 v 4" class="minors"/>
    <path d="M 100 20 v -4" class="minors"/>
    <path d="M 105 0 v 4" class="minors"/>
    <path d="M 105 20 v -4" class="minors"/>
    <path d="M 110 0 v 4" class="minors"/>
    <path d="M 110 20 v -4" class="minors"/>
    <path d="M 115 0 v 4" class="minors"/>
    <path d="M 115 20 v -4" class="minors"/>
    <path d="M 120 0 v 4" class="minors"/>
    <path d="M 120 20 v -4" class="minors"/>
    <path d="M 125 0 v 4" class="minors"/>
    <path d="M 125 20 v -4" class="minors"/>
    <path d="M 130 0 v 4" class="minors"/>
    <path d="M 130 20 v -4" class="minors"/>
    <path d="M 135 0 v 4" class="minors"/>
    <path d="M 135 20 v -4" class="minors"/>
    <path d="M 140 0 v 4" class="minors"/>
    <path d="M 140 20 v -4" class="minors"/>
    <path d="M 145 0 v 4" class="minors"/>
    <path d="M 145 20 v -4" class="minors"/>
    <path d="M 150 0 v 4" class="minors"/>
    <path d="M 150 20 v -4" class="minors"/>
  </g>
  <g id="majors">
    <path d="M 10 0 v 6" class="minors"/>
    <path d="M 10 20 v -6" class="minors"/>
    <path d="M 20 0 v 6" class="minors"/>
    <path d="M 20 20 v -6" class="minors"/>
    <path d="M 30 0 v 6" class="minors"/>
    <path d="M 30 20 v -6" class="minors"/>
    <path d="M 40 0 v 6" class="minors"/>
    <path d="M 40 20 v -6" class="minors"/>
    <path d="M 50 0 v 6" class="minors"/>
    <path d="M 50 20 v -6" class="minors"/>
    <path d="M 60 0 v 6" class="minors"/>
    <path d="M 60 20 v -6" class="minors"/>
    <path d="M 70 0 v 6" class="minors"/>
    <path d="M 70 20 v -6" class="minors"/>
    <path d="M 80 0 v 6" class="minors"/>
    <path d="M 80 20 v -6" class="minors"/>
    <path d="M 90 0 v 6" class="minors"/>
    <path d="M 90 20 v -6" class="minors"/>
    <path d="M 100 0 v 6" class="minors"/>
    <path d="M 100 20 v -6" class="minors"/>
    <path d="M 110 0 v 6" class="minors"/>
    <path d="M 110 20 v -6" class="minors"/>
    <path d="M 120 0 v 6" class="minors"/>
    <path d="M 120 20 v -6" class="minors"/>
    <path d="M 130 0 v 6" class="minors"/>
    <path d="M 130 20 v -6" class="minors"/>
    <path d="M 140 0 v 6" class="minors"/>
    <path d="M 140 20 v -6" class="minors"/>
    <g id="labels">
      <text text-anchor="middle" x="10" y="11.5" class="labels">1</text>
      <text text-anchor="middle" x="20" y="11.5" class="labels">2</text>
      <text text-anchor="middle" x="30" y="11.5" class="labels">3</text>
      <text text-anchor="middle" x="40" y="11.5" class="labels">4</text>
      <text text-anchor="middle" x="50" y="11.5" class="labels">5</text>
      <text text-anchor="middle" x="60" y="11.5" class="labels">6</text>
      <text text-anchor="middle" x="70" y="11.5" class="labels">7</text>
      <text text-anchor="middle" x="80" y="11.5" class="labels">8</text>
      <text text-anchor="middle" x="90" y="11.5" class="labels">9</text>
      <text text-anchor="middle" x="100" y="11.5" class="labels">10</text>
      <text text-anchor="middle" x="110" y="11.5" class="labels">11</text>
      <text text-anchor="middle" x="120" y="11.5" class="labels">12</text>
      <text text-anchor="middle" x="130" y="11.5" class="labels">13</text>
      <text text-anchor="middle" x="140" y="11.5" class="labels">14</text>
    </g>
  </g>
</svg>
