<?xml version="1.0" standalone="no"?>
<svg
  xmlns="http://www.w3.org/2000/svg"
  xmlns:_="http://sevgi.roktas.dev"
  xmlns:inkscape="http://www.inkscape.org/namespaces/inkscape"
  xmlns:sodipodi="http://sodipodi.sourceforge.net/DTD/sodipodi-0.dtd"
  shape-rendering="geometricPrecision"
  width="48.0mm"
  height="30.0mm"
  viewBox="0 0 48 30"
>
  <rect width="100%" height="100%" fill="#222222"/>
  <g id="Guides" inkscape:groupmode="layer" sodipodi:insensitive="true">
    <style type="text/css">
      <![CDATA[
        .frame {
          fill: none;
          stroke: #60a5fa;
          stroke-width: 0.4;
        }
        .halve {
          fill: none;
          stroke: #a3a3a3;
          stroke-width: 0.12;
        }
        .minor {
          fill: none;
          stroke: #f472b6;
          stroke-width: 0.12;
        }
      ]]>
    </style>
    <g id="Squares" inkscape:groupmode="layer">
      <path d="M 0 0 L 48 0" class="rule minor horizontal"/>
      <path d="M 0 6 L 48 6" class="rule minor horizontal"/>
      <path d="M 0 12 L 48 12" class="rule minor horizontal"/>
      <path d="M 0 18 L 48 18" class="rule minor horizontal"/>
      <path d="M 0 24 L 48 24" class="rule minor horizontal"/>
      <path d="M 0 30 L 48 30" class="rule minor horizontal"/>
      <path d="M 0 0 L 0 30" class="rule minor vertical"/>
      <path d="M 6 0 L 6 30" class="rule minor vertical"/>
      <path d="M 12 0 L 12 30" class="rule minor vertical"/>
      <path d="M 18 0 L 18 30" class="rule minor vertical"/>
      <path d="M 24 0 L 24 30" class="rule minor vertical"/>
      <path d="M 30 0 L 30 30" class="rule minor vertical"/>
      <path d="M 36 0 L 36 30" class="rule minor vertical"/>
      <path d="M 42 0 L 42 30" class="rule minor vertical"/>
      <path d="M 48 0 L 48 30" class="rule minor vertical"/>
      <path d="M 0 3 L 48 3" class="rule halve horizontal"/>
      <path d="M 0 9 L 48 9" class="rule halve horizontal"/>
      <path d="M 0 15 L 48 15" class="rule halve horizontal"/>
      <path d="M 0 21 L 48 21" class="rule halve horizontal"/>
      <path d="M 0 27 L 48 27" class="rule halve horizontal"/>
      <path d="M 3 0 L 3 30" class="rule halve vertical"/>
      <path d="M 9 0 L 9 30" class="rule halve vertical"/>
      <path d="M 15 0 L 15 30" class="rule halve vertical"/>
      <path d="M 21 0 L 21 30" class="rule halve vertical"/>
      <path d="M 27 0 L 27 30" class="rule halve vertical"/>
      <path d="M 33 0 L 33 30" class="rule halve vertical"/>
      <path d="M 39 0 L 39 30" class="rule halve vertical"/>
      <path d="M 45 0 L 45 30" class="rule halve vertical"/>
    </g>
    <rect x="0.2" y="0.2" width="47.6" height="29.6" class="frame rule"/>
  </g>
</svg>
