<svg width="48" height="48">
  <rect width="48" height="48" rx="1" fill="#222222"/>
  <symbol id="star">
    <title>Star</title>
    <path
      d="m 7.06716,10 v -2.930223 h 2.932843 l -2.073449,-2.073131 2.073449,-2.068098
h -2.932843 v -2.928548 l -2.07848,2.074807 -2.067578,-2.074807 v 2.928547
h -2.921102 l 2.060869,2.068098 -2.060869,2.073131 h 2.921102 v 2.930223
l 2.067578,-2.066419 2.07848,2.066419
"
      fill="#e5c39c"
    />
  </symbol>
  <use id="star-1-1" href="#star" class="tile-row-1 tile-row-first tile-col-1 tile-col-first" x="4" y="4"/>
  <use id="star-1-2" href="#star" class="tile-row-1 tile-row-first tile-col-2" x="14" y="4"/>
  <use id="star-1-3" href="#star" class="tile-row-1 tile-row-first tile-col-3" x="24" y="4"/>
  <use id="star-1-4" href="#star" class="tile-row-1 tile-row-first tile-col-4 tile-col-last" x="34" y="4"/>
  <use id="star-2-1" href="#star" class="tile-row-2 tile-col-1 tile-col-first" x="4" y="14"/>
  <use id="star-2-2" href="#star" class="tile-row-2 tile-col-2" x="14" y="14"/>
  <use id="star-2-3" href="#star" class="tile-row-2 tile-col-3" x="24" y="14"/>
  <use id="star-2-4" href="#star" class="tile-row-2 tile-col-4 tile-col-last" x="34" y="14"/>
  <use id="star-3-1" href="#star" class="tile-row-3 tile-col-1 tile-col-first" x="4" y="24"/>
  <use id="star-3-2" href="#star" class="tile-row-3 tile-col-2" x="14" y="24"/>
  <use id="star-3-3" href="#star" class="tile-row-3 tile-col-3" x="24" y="24"/>
  <use id="star-3-4" href="#star" class="tile-row-3 tile-col-4 tile-col-last" x="34" y="24"/>
  <use id="star-4-1" href="#star" class="tile-row-4 tile-row-last tile-col-1 tile-col-first" x="4" y="34"/>
  <use id="star-4-2" href="#star" class="tile-row-4 tile-row-last tile-col-2" x="14" y="34"/>
  <use id="star-4-3" href="#star" class="tile-row-4 tile-row-last tile-col-3" x="24" y="34"/>
  <use id="star-4-4" href="#star" class="tile-row-4 tile-row-last tile-col-4 tile-col-last" x="34" y="34"/>
</svg>
