<?xml version="1.0" encoding="UTF-8" standalone="no"?>
<!-- Created with Inkscape (http://www.inkscape.org/) -->

<svg
   width="338.66666mm"
   height="156.79024mm"
   viewBox="0 0 338.66667 156.79024"
   version="1.1"
   id="svg5"
   inkscape:version="1.2.2 (b0a8486541, 2022-12-01)"
   sodipodi:docname="banner-fixed.svg"
   inkscape:export-filename="banner.png"
   inkscape:export-xdpi="213.33359"
   inkscape:export-ydpi="213.33359"
   xmlns:inkscape="http://www.inkscape.org/namespaces/inkscape"
   xmlns:sodipodi="http://sodipodi.sourceforge.net/DTD/sodipodi-0.dtd"
   xmlns="http://www.w3.org/2000/svg"
   xmlns:svg="http://www.w3.org/2000/svg">
  <sodipodi:namedview
     id="namedview7"
     pagecolor="#ffffff"
     bordercolor="#666666"
     borderopacity="1.0"
     inkscape:showpageshadow="2"
     inkscape:pageopacity="0.0"
     inkscape:pagecheckerboard="0"
     inkscape:deskcolor="#d1d1d1"
     inkscape:document-units="mm"
     showgrid="false"
     inkscape:zoom="0.93806818"
     inkscape:cx="502.0957"
     inkscape:cy="308.61296"
     inkscape:window-width="1920"
     inkscape:window-height="1016"
     inkscape:window-x="0"
     inkscape:window-y="27"
     inkscape:window-maximized="1"
     inkscape:current-layer="layer1">
    <inkscape:grid
       type="xygrid"
       id="grid139"
       originx="-26.645575"
       originy="-57.843861" />
  </sodipodi:namedview>
  <defs
     id="defs2" />
  <g
     inkscape:label="Katman 1"
     inkscape:groupmode="layer"
     id="layer1"
     transform="translate(-26.645574,-57.843861)">
    <text
       xml:space="preserve"
       style="font-style:normal;font-weight:normal;font-size:40px;line-height:1.25;font-family:sans-serif;fill:#000000;fill-opacity:1;stroke:none"
       x="169.88669"
       y="776.73926"
       id="text447"
       transform="scale(0.26458333)"><tspan
         sodipodi:role="line"
         id="tspan445"
         x="169.88669"
         y="776.73926" /></text>
    <text
       xml:space="preserve"
       style="font-style:normal;font-weight:normal;font-size:40px;line-height:1.25;font-family:sans-serif;fill:#000000;fill-opacity:1;stroke:none"
       x="878.33978"
       y="733.3714"
       id="text499"
       transform="scale(0.26458333)"><tspan
         sodipodi:role="line"
         id="tspan497"
         x="878.33978"
         y="733.3714" /></text>
    <g
       aria-label="sevgi"
       transform="matrix(3.5234306,0,0,3.5234306,-523.18461,-1012.4921)"
       id="text2561"
       style="font-size:40.4944px;line-height:1.25;stroke-width:0.0750925">
      <path
         d="m 172.56379,330.76416 q 0,1.41731 -0.60742,2.55115 -0.60742,1.13384 -1.57928,1.94373 -0.93137,0.76939 -2.1462,1.21483 -1.21484,0.44544 -2.42967,0.44544 -1.17434,0 -2.59164,-0.48593 -1.4173,-0.48594 -2.63214,-1.66027 -0.20247,-0.20247 -0.20247,-0.52643 0,-0.44544 0.16198,-1.05285 0.16198,-0.60742 0.44544,-0.60742 0.12148,0 0.48593,0.44544 0.40494,0.40494 1.09335,0.93137 0.6884,0.52643 1.66027,0.97186 1.01236,0.40495 2.34867,0.40495 0.60742,0 1.29583,-0.16198 0.72889,-0.20247 1.33631,-0.60741 0.60742,-0.44544 0.97187,-1.09335 0.40494,-0.68841 0.40494,-1.61978 0,-0.89088 -0.32395,-1.57928 -0.28347,-0.68841 -0.85039,-1.25533 -0.56692,-0.56692 -1.33631,-1.09335 -0.7694,-0.52642 -1.70077,-1.09335 -1.17433,-0.72889 -2.02472,-1.3768 -0.85038,-0.68841 -1.4173,-1.41731 -0.56692,-0.7289 -0.85038,-1.57928 -0.24297,-0.89088 -0.24297,-1.98423 0,-0.7289 0.28346,-1.61977 0.28346,-0.93137 0.93137,-1.74126 0.68841,-0.85038 1.82225,-1.37681 1.13384,-0.56692 2.79411,-0.56692 1.29582,0 2.63214,0.52642 1.33631,0.48594 2.34867,1.57929 0.12149,0.12148 0.12149,0.36445 0,0.6884 -0.24297,1.17433 -0.24296,0.48594 -0.52643,0.48594 -0.081,0 -0.44543,-0.40495 -0.32396,-0.40494 -0.97187,-0.89087 -0.60742,-0.52643 -1.53879,-0.93138 -0.93137,-0.40494 -2.1462,-0.40494 -0.44544,0 -0.97187,0.16198 -0.48593,0.16198 -0.93137,0.56692 -0.44544,0.36445 -0.76939,1.01236 -0.28346,0.60742 -0.28346,1.49829 0,0.80989 0.24297,1.4578 0.24296,0.60742 0.80988,1.21483 0.60742,0.60742 1.4983,1.29582 0.93137,0.64791 2.26768,1.4578 2.02472,1.21483 2.9156,2.42967 0.89088,1.17433 0.89088,2.99658 z"
         style="font-family:'Briem Handwriting';-inkscape-font-specification:'Briem Handwriting';fill:#d70a53;stroke-width:0.0750925"
         id="path7898" />
      <path
         d="m 191.27219,319.6687 q 0,1.53878 -0.6884,2.63213 -0.68841,1.09335 -1.78176,1.78176 -1.05285,0.6884 -2.38917,1.01236 -1.29582,0.32395 -2.55115,0.32395 -1.29582,0 -2.42966,-0.12148 -1.13384,-0.12149 -1.94373,-0.32396 -0.081,0.20247 -0.081,0.93137 0,0.7289 0,1.29582 0,1.74126 0.28346,3.19906 0.32396,1.4578 0.97187,2.55115 0.64791,1.05285 1.61977,1.66027 1.01236,0.56692 2.38917,0.56692 0.93137,0 1.78176,-0.24297 0.85038,-0.28346 1.53878,-0.64791 0.68841,-0.36445 1.21484,-0.76939 0.56692,-0.40494 0.89087,-0.6884 0.40495,-0.36445 0.52643,-0.48594 0.12148,-0.12148 0.24297,-0.12148 0.20247,0 0.32395,0.36445 0.16198,0.32395 0.16198,0.6884 0,0.20248 -0.0405,0.32396 -0.0405,0.081 -0.24296,0.28346 -1.29582,1.4173 -3.03708,2.22719 -1.74126,0.80989 -4.00895,0.80989 -1.49829,0 -2.79411,-0.52643 -1.25533,-0.52642 -2.22719,-1.66027 -0.93137,-1.13384 -1.4983,-2.95609 -0.52642,-1.82225 -0.52642,-4.37339 0,-3.44203 0.7289,-5.7907 0.72889,-2.34868 1.94373,-3.76598 1.25532,-1.4578 2.8346,-2.06522 1.57929,-0.60741 3.28005,-0.60741 1.49829,0 2.51065,0.36445 1.05286,0.36445 1.70077,1.01236 0.6884,0.60741 0.97186,1.4173 0.32396,0.80989 0.32396,1.70077 z m -2.63214,-0.12149 q 0,-1.21483 -0.80988,-2.1462 -0.7694,-0.93137 -2.59165,-0.93137 -1.82224,0 -3.28004,1.57928 -1.4578,1.57928 -2.02472,4.85933 0.16198,0.24296 1.29582,0.60741 1.13384,0.32396 2.55115,0.32396 2.34867,0 3.604,-1.09335 1.25532,-1.13384 1.25532,-3.19906 z"
         id="path7900"
         style="stroke-width:0.0750925" />
      <path
         d="m 209.9401,316.26717 q 0,1.49829 -0.6884,3.80647 -0.64791,2.26769 -1.82225,4.98081 -1.13384,2.71313 -2.67263,5.70971 -1.49829,2.95609 -3.19906,5.7907 -0.20247,0.36445 -0.48593,0.36445 -0.24297,0 -0.56692,-0.081 -0.32396,-0.0405 -0.64791,-0.16198 -0.28346,-0.12148 -0.52643,-0.32395 -0.20247,-0.20247 -0.24297,-0.48593 -1.01236,-6.11466 -1.90323,-9.96163 -0.89088,-3.84696 -1.57929,-6.07416 -0.64791,-2.22719 -1.05285,-3.11807 -0.40494,-0.93137 -0.40494,-1.17433 0,-0.20247 0.081,-0.28346 0.12149,-0.081 0.52643,-0.081 0.60742,0 1.01236,0.081 0.40495,0.0405 0.64791,0.24296 0.28346,0.16198 0.44544,0.48594 0.16198,0.28346 0.36445,0.76939 0.16198,0.44544 0.44544,1.4578 0.28346,1.01236 0.60741,2.38917 0.32396,1.33631 0.64792,2.91559 0.36444,1.57929 0.6884,3.19906 0.36445,1.57928 0.64791,3.07758 0.32396,1.49829 0.56692,2.67263 0.12149,0.60741 0.16198,1.13384 0.081,0.48593 0.16198,0.80989 0.85038,-1.53879 1.74126,-3.36104 0.93137,-1.82225 1.78175,-3.76598 0.85038,-1.94373 1.53879,-3.88746 0.6884,-1.94373 1.09335,-3.76598 0.24296,-1.13384 0.36445,-2.1462 0.16197,-1.05286 0.16197,-1.98423 0,-0.32395 0.32396,-0.32395 0.44544,0 0.89088,0.16198 0.44543,0.12148 0.64791,0.36444 0.081,0.12149 0.16197,0.24297 0.081,0.12148 0.081,0.32396 z"
         style="font-family:'Briem Handwriting';-inkscape-font-specification:'Briem Handwriting';fill:#d70a53;stroke-width:0.0750925"
         id="path7902" />
      <path
         d="m 231.52359,316.55063 q 0,0.56692 -0.16198,0.89087 -0.16198,0.32396 -0.32396,0.32396 -0.20247,0.93137 -0.32395,2.22719 -0.12148,1.29582 -0.20247,3.52301 -0.0405,2.1867 -0.0405,5.54774 0,3.36103 0,8.46333 0,2.30818 -0.7289,3.92795 -0.7289,1.66027 -1.86274,2.75362 -1.09335,1.05286 -2.38917,1.53879 -1.25532,0.52643 -2.22719,0.52643 -1.37681,0 -2.75362,-0.32396 -1.37681,-0.28346 -2.63214,-0.7289 -1.25532,-0.44544 -2.30818,-0.93137 -1.05285,-0.48593 -1.70076,-0.85038 -0.20247,-0.081 -0.32396,-0.40495 -0.081,-0.28346 -0.081,-0.60741 0,-0.85038 0.32395,-0.85038 0.12148,0 0.97187,0.40494 0.89087,0.40494 2.22719,0.89088 1.37681,0.52642 3.07757,0.93137 1.74126,0.40494 3.52302,0.40494 1.21483,0 2.1057,-0.32395 0.89088,-0.32396 1.4578,-1.33632 0.56692,-1.01236 0.80989,-2.91559 0.28346,-1.90324 0.28346,-5.0618 0,-1.25533 0,-2.87511 0.0405,-1.66027 0.0405,-3.36103 0.0405,-1.70077 0.12148,-3.32054 0.081,-1.66027 0.20247,-2.99659 -0.7289,1.4578 -1.78175,3.15856 -1.01236,1.66027 -2.1867,3.32055 -1.17434,1.66027 -2.42966,3.19905 -1.25533,1.4983 -2.38917,2.67263 -1.13385,1.17434 -2.10571,1.86275 -0.97187,0.6884 -1.61978,0.6884 -0.16198,0 -0.48593,-0.16198 -0.28346,-0.12148 -0.60742,-0.36445 -0.32395,-0.20247 -0.60741,-0.40494 -0.24297,-0.24297 -0.32396,-0.40494 -0.16198,-0.32396 -0.16198,-1.74126 0,-1.17434 0.0405,-3.15857 0.081,-2.02472 0.28346,-4.13043 0.20247,-2.1462 0.64791,-4.04944 0.44544,-1.94373 1.21483,-2.99658 1.49829,-2.06522 3.32054,-3.19906 1.82225,-1.13384 3.88746,-1.13384 0.28347,0 1.13385,0.081 0.85038,0.081 1.98422,0.24296 1.17434,0.12149 2.47016,0.36445 1.29582,0.20247 2.47016,0.44544 0.16198,0 0.16198,0.24297 z m -2.55115,1.21483 q -2.55115,-0.48593 -4.29241,-0.64791 -1.74126,-0.20247 -2.91559,-0.20247 -1.25533,0 -2.30818,1.05285 -1.01236,1.05286 -1.74126,3.07758 -0.7289,2.02472 -1.13385,4.98081 -0.36445,2.95609 -0.36445,6.76256 0,1.25533 0.12149,1.57928 0.16198,0.32396 0.52642,0.32396 0.32396,0 1.21484,-0.85038 0.93137,-0.85039 2.1462,-2.26769 1.21483,-1.4173 2.55115,-3.19906 1.37681,-1.82225 2.59164,-3.68499 1.25533,-1.86274 2.1867,-3.68499 0.97186,-1.82225 1.4173,-3.23955 z"
         style="font-family:'Briem Handwriting';-inkscape-font-specification:'Briem Handwriting';fill:#d70a53;stroke-width:0.0750925"
         id="path7904" />
      <path
         d="m 243.34793,307.64186 q 0,0.64791 -0.48593,1.25533 -0.48593,0.60741 -1.09335,0.60741 -0.60742,0 -1.01236,-0.32395 -0.36445,-0.36445 -0.36445,-1.09335 0,-1.01236 0.56692,-1.66027 0.56692,-0.64791 1.21483,-0.64791 0.44544,0 0.80989,0.40494 0.36445,0.40494 0.36445,1.4578 z m 4.49488,23.04131 q 0,0.28346 -0.12148,0.40495 -0.48594,0.64791 -1.33632,1.66027 -0.85038,0.97186 -1.78175,1.90323 -0.93137,0.93138 -1.82225,1.61978 -0.89088,0.64791 -1.53879,0.64791 -0.16197,0 -0.48593,-0.16198 -0.28346,-0.12148 -0.60742,-0.36445 -0.28346,-0.20247 -0.56692,-0.40494 -0.24296,-0.24297 -0.32395,-0.40494 -0.081,-0.20248 -0.081,-0.60742 0,-0.44544 0,-1.13384 0.0405,-1.94374 0.16198,-4.65686 0.16197,-2.71312 0.32395,-5.38576 0.16198,-2.71312 0.28346,-4.98081 0.16198,-2.26768 0.16198,-3.32054 0,-0.32395 0.32396,-0.32395 0.6884,0 1.33631,0.28346 0.64791,0.24296 0.64791,0.80989 0,0.48593 -0.081,1.66027 -0.081,1.17433 -0.20247,2.79411 -0.081,1.57928 -0.24297,3.40153 -0.12148,1.78175 -0.24296,3.48252 -0.081,1.66027 -0.16198,3.03708 -0.081,1.37681 -0.081,2.1462 0,1.25533 0.12148,1.61978 0.16198,0.32395 0.52643,0.32395 0.28346,0 0.97187,-0.60741 0.6884,-0.64791 1.4578,-1.4578 0.76939,-0.80989 1.45779,-1.61978 0.7289,-0.85038 1.05286,-1.29582 0.081,-0.081 0.12148,-0.16198 0.081,-0.081 0.16198,-0.081 0.12148,0 0.32395,0.40494 0.24297,0.36445 0.24297,0.76939 z"
         id="path7906"
         style="stroke-width:0.0750925" />
    </g>
  </g>
</svg>
