<?xml version="1.0" encoding="UTF-8" standalone="no"?>
<svg id="Root" shape-rendering="crispEdges" width="70mm" height="70mm" viewBox="0 -2 70 70" version="1.1" sodipodi:docname="logo.svg" inkscape:version="1.4.2 (ebf0e940d0, 2025-05-08)" inkscape:export-filename="logo.png" inkscape:export-xdpi="185.78287" inkscape:export-ydpi="185.78287" xmlns:inkscape="http://www.inkscape.org/namespaces/inkscape" xmlns:sodipodi="http://sodipodi.sourceforge.net/DTD/sodipodi-0.dtd" xmlns="http://www.w3.org/2000/svg" xmlns:svg="http://www.w3.org/2000/svg">
  <defs id="defs1" />
  <sodipodi:namedview id="namedview1" pagecolor="#ffffff" bordercolor="#000000" borderopacity="0.25" inkscape:showpageshadow="2" inkscape:pageopacity="0.0" inkscape:pagecheckerboard="0" inkscape:deskcolor="#d1d1d1" inkscape:document-units="mm" inkscape:zoom="2.56" inkscape:cx="39.257812" inkscape:cy="157.8125" inkscape:window-width="1920" inkscape:window-height="1011" inkscape:window-x="0" inkscape:window-y="0" inkscape:window-maximized="1" inkscape:current-layer="Logo" />
  <style type="text/css" id="Style"><![CDATA[
      * {
        overflow: visible;
      }
      .active {
        stroke: purple;
        stroke-width: 1.5;
        stroke-linecap: round;
        fill: none;
      }
      .passive {
        stroke: lightgrey;
        stroke-width: 1.5;
        stroke-linecap: round;
        fill: none;
      }
      .active- {
        stroke: purple;
        stroke-width: 4;
        stroke-linecap: round;
        fill: none;
      }
      .passive- {
        stroke: lightgrey;
        stroke-width: 4;
        stroke-linecap: round;
        fill: none;
      }
    ]]></style>
  <g id="Logo" inkscape:groupmode="layer" transform="translate(5,3)">
    <defs id="Primitives">
      <path id="Logo.Master" d="m 30,30 c 0,0 18.39,7.089444 18.39,15 C 48.39,52.910556 30,60 30,60 M 30,0 C 30,0 11.61,7.089442 11.61,14.999998 11.61,22.910556 30,30 30,30" />
    </defs>
    <use id="Logo.HP" href="#Logo.Master" class="passive" transform="matrix(0,1,1,0,0,0)" style="display:none" />
    <use id="Logo.VN" href="#Logo.Master" class="passive" transform="matrix(-1,0,0,1,60,0)" />
    <use id="Logo.HN" href="#Logo.Master" class="active" transform="rotate(-90,30,30)" style="display:none" />
    <use id="Logo.VP" href="#Logo.Master" class="active" />
  </g>
  <g id="Logo-" inkscape:groupmode="layer" transform="translate(5,3)" style="display:none">
    <defs id="Primitives">
      <path id="Logo-.Master" d="m 30,30 c 0,0 18.39,7.089444 18.39,15 C 48.39,52.910556 30,60 30,60 M 30,0 C 30,0 11.61,7.089442 11.61,14.999998 11.61,22.910556 30,30 30,30" />
    </defs>
    <use id="Logo-.HP" href="#Logo-.Master" class="passive-" transform="matrix(0,1,1,0,0,0)"  style="display:none" />
    <use id="Logo-.VN" href="#Logo-.Master" class="passive-" transform="matrix(-1,0,0,1,60,0)" />
    <use id="Logo-.HN" href="#Logo-.Master" class="active-" transform="rotate(-90,30,30)"  style="display:none"/>
    <use id="Logo-.VP" href="#Logo-.Master" class="active-" />
  </g>
</svg>
