<svg width="180" height="80" viewBox="0 0 180 80">
  <style type="text/css">
    <![CDATA[
      .cell {
        stroke: white;
      }
    ]]>
  </style>
  <rect class="cell" x="0" y="0" width="20" height="20" rx="2" fill="#FF6961"/>
  <rect class="cell" x="0" y="20" width="20" height="20" rx="2" fill="#77DD77"/>
  <rect class="cell" x="0" y="40" width="20" height="20" rx="2" fill="#FFD700"/>
  <rect class="cell" x="0" y="60" width="20" height="20" rx="2" fill="#FF6961"/>
  <rect class="cell" x="20" y="0" width="20" height="20" rx="2" fill="#77DD77"/>
  <rect class="cell" x="20" y="20" width="20" height="20" rx="2" fill="#FFD700"/>
  <rect class="cell" x="20" y="40" width="20" height="20" rx="2" fill="#FF6961"/>
  <rect class="cell" x="20" y="60" width="20" height="20" rx="2" fill="#77DD77"/>
  <rect class="cell" x="40" y="0" width="20" height="20" rx="2" fill="#FFD700"/>
  <rect class="cell" x="40" y="20" width="20" height="20" rx="2" fill="#FF6961"/>
  <rect class="cell" x="40" y="40" width="20" height="20" rx="2" fill="#77DD77"/>
  <rect class="cell" x="40" y="60" width="20" height="20" rx="2" fill="#FFD700"/>
  <rect class="cell" x="60" y="0" width="20" height="20" rx="2" fill="#FF6961"/>
  <rect class="cell" x="60" y="20" width="20" height="20" rx="2" fill="#77DD77"/>
  <rect class="cell" x="60" y="40" width="20" height="20" rx="2" fill="#FFD700"/>
  <rect class="cell" x="60" y="60" width="20" height="20" rx="2" fill="#FF6961"/>
  <rect class="cell" x="80" y="0" width="20" height="20" rx="2" fill="#77DD77"/>
  <rect class="cell" x="80" y="20" width="20" height="20" rx="2" fill="#FFD700"/>
  <rect class="cell" x="80" y="40" width="20" height="20" rx="2" fill="#FF6961"/>
  <rect class="cell" x="80" y="60" width="20" height="20" rx="2" fill="#77DD77"/>
  <rect class="cell" x="100" y="0" width="20" height="20" rx="2" fill="#FFD700"/>
  <rect class="cell" x="100" y="20" width="20" height="20" rx="2" fill="#FF6961"/>
  <rect class="cell" x="100" y="40" width="20" height="20" rx="2" fill="#77DD77"/>
  <rect class="cell" x="100" y="60" width="20" height="20" rx="2" fill="#FFD700"/>
  <rect class="cell" x="120" y="0" width="20" height="20" rx="2" fill="#FF6961"/>
  <rect class="cell" x="120" y="20" width="20" height="20" rx="2" fill="#77DD77"/>
  <rect class="cell" x="120" y="40" width="20" height="20" rx="2" fill="#FFD700"/>
  <rect class="cell" x="120" y="60" width="20" height="20" rx="2" fill="#FF6961"/>
  <rect class="cell" x="140" y="0" width="20" height="20" rx="2" fill="#77DD77"/>
  <rect class="cell" x="140" y="20" width="20" height="20" rx="2" fill="#FFD700"/>
  <rect class="cell" x="140" y="40" width="20" height="20" rx="2" fill="#FF6961"/>
  <rect class="cell" x="140" y="60" width="20" height="20" rx="2" fill="#77DD77"/>
  <rect class="cell" x="160" y="0" width="20" height="20" rx="2" fill="#FFD700"/>
  <rect class="cell" x="160" y="20" width="20" height="20" rx="2" fill="#FF6961"/>
  <rect class="cell" x="160" y="40" width="20" height="20" rx="2" fill="#77DD77"/>
  <rect class="cell" x="160" y="60" width="20" height="20" rx="2" fill="#FFD700"/>
</svg>
